<svg xmlns="http://www.w3.org/2000/svg" viewBox="0 0 337.08 320.84"><defs><style>.cls-1{fill:#765745;}.cls-2{fill:#fff;}.cls-3{fill:#1d0c02;}.cls-4{fill:#bf5a1f;}</style></defs><title>アセット 1</title><g id="レイヤー_2" data-name="レイヤー 2"><g id="レイヤー_2-2" data-name="レイヤー 2"><circle class="cls-1" cx="93" cy="93" r="92.5"/><path class="cls-2" d="M93,1A92,92,0,1,1,1,93,92.1,92.1,0,0,1,93,1m0-1a93,93,0,1,0,93,93A93,93,0,0,0,93,0Z"/><circle class="cls-1" cx="182.08" cy="165.84" r="154.5" transform="translate(-63.94 177.32) rotate(-45)"/><path class="cls-2" d="M182.08,11.84c84.91,0,154,69.09,154,154s-69.09,154-154,154-154-69.08-154-154,69.08-154,154-154m0-1c-85.47,0-155,69.54-155,155s69.53,155,155,155,155-69.53,155-155-69.54-155-155-155Z"/><circle class="cls-3" cx="182.08" cy="165.84" r="139.5" transform="translate(-10.79 319) rotate(-80.78)"/><path class="cls-2" d="M182.08,26.84c76.64,0,139,62.36,139,139s-62.36,139-139,139-139-62.35-139-139,62.35-139,139-139m0-1c-77.2,0-140,62.81-140,140s62.8,140,140,140,140-62.8,140-140-62.81-140-140-140Z"/><circle class="cls-4" cx="265" cy="101" r="18.5"/><path class="cls-2" d="M265,83a18,18,0,1,1-18,18,18,18,0,0,1,18-18m0-1a19,19,0,1,0,19,19,19,19,0,0,0-19-19Z"/><path class="cls-4" d="M168.33,163.73l20.42-22.36h8.83l-21.2,23.14,26.51,25.8h-9.71l-24.85-24.08v24.08h-7.07V141.37h7.07Z"/></g></g></svg>