<svg xmlns="http://www.w3.org/2000/svg" viewBox="0 0 250 237.96"><defs><style>.cls-1{fill:#765745;}.cls-2{fill:#fff;}.cls-3{fill:#1d0c02;}.cls-4{fill:#bf5a1f;}</style></defs><title>アセット 2</title><g id="レイヤー_2" data-name="レイヤー 2"><g id="レイヤー_2-2" data-name="レイヤー 2"><circle class="cls-1" cx="68.98" cy="68.98" r="68.48" transform="translate(-21.15 31.65) rotate(-22.5)"/><path class="cls-2" d="M69,1A68,68,0,1,1,1,69,68,68,0,0,1,69,1m0-1a69,69,0,1,0,69,69A69,69,0,0,0,69,0Z"/><circle class="cls-1" cx="135.04" cy="123" r="114.46" transform="translate(-47.42 131.51) rotate(-45)"/><path class="cls-2" d="M135,9a114,114,0,1,1-114,114A114.09,114.09,0,0,1,135,9m0-1A115,115,0,1,0,250,123,115.09,115.09,0,0,0,135,8Z"/><circle class="cls-3" cx="135.04" cy="123" r="103.33" transform="translate(-47.42 131.51) rotate(-45)"/><path class="cls-2" d="M135,20.17A102.84,102.84,0,1,1,32.21,123,102.95,102.95,0,0,1,135,20.17m0-1A103.84,103.84,0,1,0,238.87,123,104,104,0,0,0,135,19.17Z"/><circle class="cls-4" cx="196.54" cy="74.91" r="13.59"/><path class="cls-2" d="M196.54,61.82a13.09,13.09,0,1,1-13.09,13.09,13.11,13.11,0,0,1,13.09-13.09m0-1a14.09,14.09,0,1,0,14.1,14.09,14.1,14.1,0,0,0-14.1-14.09Z"/></g></g></svg>